<?xml version="1.0" encoding="utf-8"?>
<!-- Generator: Adobe Illustrator 18.1.1, SVG Export Plug-In . SVG Version: 6.00 Build 0)  -->
<svg version="1.1" id="vn-g" xmlns="http://www.w3.org/2000/svg" xmlns:xlink="http://www.w3.org/1999/xlink" x="0px" y="0px"
	 viewBox="0 0 1200 1200" enable-background="new 0 0 1200 1200" xml:space="preserve">
<circle fill="none" stroke="#FFFFFF" stroke-width="3" stroke-miterlimit="10" cx="723.5" cy="264.7" r="46.2"/>
<circle fill="#FFFFFF" cx="761.8" cy="289.4" r="4.8"/>
<circle fill="#FFFFFF" cx="667.3" cy="361.1" r="3"/>
<line fill="none" stroke="#FFFFFF" stroke-width="0.75" stroke-miterlimit="10" x1="702.6" y1="305.9" x2="667.3" y2="361.1"/>
<g>
	<path fill="#FFFFFF" d="M701.3,247.3c0-1.7,1.3-3.2,3.6-3.2s3.6,1.5,3.6,3.2v9.2c1.7-0.9,3.2-1.5,5.7-1.5c6.6,0,9.3,3.7,9.3,8.6
		v8.7c0,5.5-3.7,9.7-11.1,9.7c-7,0-11.1-3.8-11.1-8.7V247.3z M708.5,273.3c0,1.9,1.5,3.1,4,3.1c2.6,0,3.8-1.4,3.8-3.5v-9.5
		c0-1.9-1-3-3.6-3c-1.7,0-3.1,0.5-4.2,1.5V273.3z"/>
	<path fill="#FFFFFF" d="M726.1,247.3c0-1.7,1.3-3.2,3.6-3.2s3.6,1.5,3.6,3.2v9.2c1.7-0.9,3.2-1.5,5.7-1.5c6.6,0,9.3,3.7,9.3,8.6
		v8.7c0,5.5-3.7,9.7-11.1,9.7c-7,0-11.1-3.8-11.1-8.7V247.3z M733.3,273.3c0,1.9,1.5,3.1,4,3.1c2.6,0,3.8-1.4,3.8-3.5v-9.5
		c0-1.9-1-3-3.6-3c-1.7,0-3.1,0.5-4.2,1.5V273.3z"/>
</g>
</svg>
