<?xml version="1.0" encoding="utf-8"?>
<!-- Generator: Adobe Illustrator 18.1.1, SVG Export Plug-In . SVG Version: 6.00 Build 0)  -->
<svg version="1.1" id="tree" class="animate" xmlns="http://www.w3.org/2000/svg" xmlns:xlink="http://www.w3.org/1999/xlink" x="0px"
		 y="0px" viewBox="0 0 1072.3 2419.8" enable-background="new 0 0 1072.3 2419.8" xml:space="preserve">
						<circle opacity="0.5" fill="none" stroke="#7FC1C9" stroke-width="8" stroke-miterlimit="10" cx="816.7" cy="1944.1" r="150.8"/>
						<circle opacity="0.5" fill="none" stroke="#7EC1C9" stroke-width="4" stroke-miterlimit="10" cx="208" cy="1792.9" r="125.1"/>
						<circle opacity="0.5" fill="none" stroke="#7EC1C9" stroke-width="4" stroke-miterlimit="10" cx="208" cy="1792.9" r="144.6"/>
						<circle id="point1" opacity="0.5" fill="#7EC1C9" stroke="#FFFFFF" stroke-width="3" stroke-miterlimit="10" cx="371.2" cy="316.7" r="38.9"/>
						<circle id="point1-circle1" opacity="0.5" fill="none" stroke="#FFFFFF" stroke-width="2" stroke-miterlimit="10" cx="336.7" cy="310.8" r="27.4"/>
						<circle id="point1-center" opacity="0.5" fill="#FFFFFF" cx="374.8" cy="313.4" r="10.3"/>
						<circle id="point1-circle-outer" opacity="0.5" fill="none" stroke="#FFFFFF" stroke-width="2" stroke-miterlimit="10" cx="376.9" cy="315.7" r="168"/>
						<circle id="point1-point1c" opacity="0.5" fill="#FFFFFF" cx="215.9" cy="396.2" r="10.3"/>
						<circle id="point1-point1d" opacity="0.5" fill="#FFFFFF" cx="208.9" cy="281.4" r="10.3"/>
						<circle id="point1a" opacity="0.5" fill="#FFFFFF" cx="403.3" cy="9.5" r="9.5"/>
						<path id="point1-line1" opacity="0.5" fill="none" stroke="#FFFFFF" stroke-width="2" stroke-miterlimit="10" d="M403.3,9.5 L374.8,312.1"/>
						<path id="point1-line2" opacity="0.5" fill="none" stroke="#7EC1C9" stroke-width="4" stroke-miterlimit="10" d="M681.6,570.7 L405.2,337.8"/>
						<path id="point1-line3" opacity="0.5" fill="none" stroke="#FFFFFF" stroke-width="2" stroke-miterlimit="10" d="M372.8,308.8 L371.5,483.7"/>
						<circle id="point1-circle2" opacity="0.5" fill="none" stroke="#FFFFFF" stroke-width="2" stroke-miterlimit="10" cx="373.4" cy="489.1" r="44.9"/>
						<circle id="point1-circle3" opacity="0.5" fill="none" stroke="#FFFFFF" stroke-width="2" stroke-miterlimit="10" cx="203" cy="559" r="63"/>
						<path id="point1-line4" opacity="0.5" fill="none" stroke="#FFFFFF" stroke-width="2" stroke-miterlimit="10" d="M209.3,550.9 L374.8,312.1"/>
						<circle id="point1b" opacity="0.5" fill="#FFFFFF" cx="203" cy="559" r="10.3"/>
						<path id="point1-line5" opacity="0.5" fill="#FFFFFF" stroke="#FFFFFF" stroke-width="2" stroke-miterlimit="10" d="M339.8,330.4 L215.9,396.2"/>
						<path id="point1-line6" opacity="0.5" fill="#FFFFFF" stroke="#FFFFFF" stroke-width="2" stroke-miterlimit="10" d="M336.2,308.8 L209.3,281.4"/>
						<path id="point1-line7" opacity="0.5" fill="none" stroke="#7EC1C9" stroke-width="2" stroke-miterlimit="10" d="M689.4,630.2 L658.7,672.7"/>
						<path id="baby-bottle" opacity="0.5" fill="#7EC1C9" d="M837.5,1953.5c0.5-0.3,2.7-1.6,2.7-1.6l-0.4-0.7c2.1,2.9,3.2,4.1,3.3,4.1c0.2,0,2.9-1.9,3-2.4
							c0.1-0.4-0.2-0.8-0.3-1.1c0.1,0,0.1,0.1,0.1,0.1s1.2-0.2,2.3-1.6c1-1.4,8.5-5,8.5-5l0-0.1c0,0,0.7-1.1,0.6-2l0-0.1
							c0,0-0.1,0-0.3-0.1c0,0,0.1,0,0.1,0c0.2-0.1-0.7-2.2-2.3-5.4c0.5-0.2,0.5-1.7,0.4-2.3c-0.2-0.7,2.5-1.7,3.8-3.2
							c1.2-1.5,2.9-5.2,6.4-8.2s9.2-5.4,9.2-5.4c3.1-1.8,4.1-5.8,2.3-8.8l-0.1-0.2c-1.8-3.1-5.8-4.1-8.8-2.3c0,0-4.8,3.8-9.2,5.4
							c-4.3,1.6-8.4,1.2-10.3,1.6c-1.9,0.4-4.1,2.2-4.6,1.7c-0.4-0.4-1.7-1.1-2.2-0.8c-2-3-3.3-4.8-3.6-4.6c0,0,0,0.1,0,0.1
							c0-0.2,0-0.3,0-0.3l0-0.1c-0.7-0.6-2-0.5-2-0.5l0-0.1c0,0-6.7,4.8-8.5,5c-1.7,0.2-2.5,1.2-2.5,1.2s0,0,0,0.1
							c-0.2-0.3-0.4-0.7-0.8-0.8c-0.5-0.2-3.5,1.3-3.6,1.4c0,0.1,0.5,1.7,2,4.9l-0.4-0.7c0,0-2.2,1.3-2.7,1.6s-5.7-6.5-16.7-0.1
							s-51.2,30.1-51.2,30.1s-6.3,4.3-0.7,13.9c5.6,9.6,7.4,12.6,7.4,12.6l0.3,0.5c0,0,1.7,3,7.4,12.6c5.6,9.6,12.5,6.2,12.5,6.2
							s40.2-23.6,51.2-30.1S837,1953.8,837.5,1953.5z"/>
						<circle id="point2" opacity="0.5" fill="#7EC1C9" cx="710.1" cy="597.3" r="38.9"/>
						<path id="point2-line1" opacity="0.5" fill="none" stroke="#7EC1C9" stroke-width="4" stroke-miterlimit="10" d="M719.4,635 L841.2,1018.6"/>
						<circle id="point2b" opacity="0.5" fill="#7EC1C9" cx="658.7" cy="672.7" r="10.3"/>
						<path id="point2-curve-inner" opacity="0.5" fill="none" stroke="#7EC1C9" stroke-width="2" stroke-miterlimit="10" d="M667,1955.4
							C-47.7,1403.9,369.4,813.6,675,614.1"/>
						<path id="point2-curve-outer" opacity="0.5" fill="none" stroke="#7EC1C9" stroke-width="2" stroke-miterlimit="10" d="M185.5,1757.9
							C-46.2,1190,488,726.7,674,612.5"/>
						<circle id="point4" opacity="0.5" fill="#7EC1C9" cx="677.1" cy="1372.8" r="28.4"/>
						<path id="point4-line2" opacity="0.5" fill="none" stroke="#7EC1C9" stroke-width="4" stroke-miterlimit="10" d="M787,1796.8 L681,1400.9"/>
						<circle id="point5" opacity="0.5" fill="#7EC1C9" cx="207.8" cy="1790.4" r="38.9"/>
						<path id="point5-circle-outer" opacity="0.1" fill="#7EC1C9" d="M208,1585.3c-114.9,0-208,93.1-208,208c0,114.9,93.1,208,208,208s208-93.1,208-208
									C416,1678.4,322.9,1585.3,208,1585.3z M271.4,1901.1c-59.6,35-136.2,15.1-171.2-44.4s-15.1-136.2,44.4-171.2
									c59.6-35,136.2-15.1,171.2,44.4C350.8,1789.4,331,1866.1,271.4,1901.1z"/>
						<path id="point5-line" opacity="0.5" fill="none" stroke="#7EC1C9" stroke-width="4" stroke-miterlimit="10" d="M250,1962.7 L217.1,1828.2"/>
						<circle id="point6" opacity="0.5" fill="#7EC1C9" cx="256" cy="1986.8" r="24.9"/>
						<path id="point6-line" opacity="0.5" fill="none" stroke="#7EC1C9" stroke-width="4" stroke-miterlimit="10" d="M667,1955.4 L277.5,1987.3"/>
						<circle id="point7" opacity="0.5" fill="#7EC1C9" cx="471.8" cy="2380.9" r="38.9"/>
						<path id="point7-line" opacity="0.5" fill="none" stroke="#7EC1C9" stroke-width="4" stroke-miterlimit="10" d="M495.1,2351.5 L724.1,2062.9"/>
						<circle id="point3" opacity="0.5" fill="#7EC1C9" cx="847.8" cy="1043.2" r="25.4"/>
						<path id="point3-line" opacity="0.5" fill="none" stroke="#7EC1C9" stroke-width="4" stroke-miterlimit="10" d="M689.4,1349 L836.1,1065.8"/>
						<circle id="decision_girl-circle-outer" opacity="0.5" fill="none" stroke="#FFFFFF" stroke-width="8" stroke-miterlimit="10" cx="816.7" cy="1944.1" r="251.5"/>
						<path id="point4-line1" opacity="0.5" fill="none" stroke="#7EC1C9" stroke-width="2" stroke-miterlimit="10" d="M481.2,1329.3 L648.7,1369.5"/>
						<circle id="point4b" opacity="0.5" fill="#7EC1C9" cx="471" cy="1326.2" r="10.7"/>
					</svg>