<?xml version="1.0" encoding="utf-8"?>
<!-- Generator: Adobe Illustrator 18.1.1, SVG Export Plug-In . SVG Version: 6.00 Build 0)  -->
<svg version="1.1" id="Layer_1" xmlns="http://www.w3.org/2000/svg" xmlns:xlink="http://www.w3.org/1999/xlink" x="0px" y="0px"
	 viewBox="0 0 200 205.1" enable-background="new 0 0 200 205.1" xml:space="preserve">
<path fill-rule="evenodd" clip-rule="evenodd" fill="none" stroke="#000000" stroke-width="3" stroke-miterlimit="10" d="M100,8.1
	c52.2,0,94.5,42.3,94.5,94.5S152.2,197,100,197S5.5,154.7,5.5,102.5S47.8,8.1,100,8.1z"/>
<path id="dot2" fill="#231F20" d="M187.5,130.3c3.8,0,6.9,3.1,6.9,6.9s-3.1,6.9-6.9,6.9s-6.9-3.1-6.9-6.9S183.7,130.3,187.5,130.3z"
	/>
<path id="dot1" fill="#231F20" d="M64.6,8.2c3.8,0,6.9,3.1,6.9,6.9s-3.1,6.9-6.9,6.9s-6.9-3.1-6.9-6.9S60.8,8.2,64.6,8.2z"/>
<path id="dot3" fill="#FFFFFF" stroke="#231F20" stroke-width="4" stroke-miterlimit="10" d="M100.5,191.5c3,0,5.5,2.5,5.5,5.5
	s-2.5,5.5-5.5,5.5c-3,0-5.5-2.5-5.5-5.5S97.4,191.5,100.5,191.5z"/>
<g id="letters">
	<path id="H" stroke="#000000" stroke-width="3" stroke-miterlimit="10" d="M85.8,131.2V73.8c0-1.9-1.7-3.6-3.6-3.6
		c-1.9,0-3.6,1.7-3.6,3.6V99H54.4V73.8c0-1.9-1.6-3.6-3.6-3.6s-3.6,1.7-3.6,3.6v57.3c0,2,1.6,3.6,3.6,3.6s3.6-1.7,3.6-3.6V106h24.3
		v25.2c0,2,1.7,3.6,3.6,3.6C84.2,134.8,85.8,133.1,85.8,131.2z"/>
	<path id="M" stroke="#000000" stroke-width="3" stroke-miterlimit="10" d="M152.7,74c0-2-1.6-3.7-3.7-3.7c-1.5,0-2.8,0.6-3.7,2.2
		l-17.4,37.3l-17.4-37.2c-0.8-1.5-2-2.3-3.8-2.3c-2.1,0-3.7,1.6-3.7,3.7v57.3c0,1.9,1.5,3.5,3.4,3.5c2,0,3.7-1.6,3.7-3.5V88
		l14.3,30.6c0.7,1.4,2,2.1,3.4,2.1c1.5,0,2.8-0.7,3.5-2.1L145.6,88v43.4c0,1.9,1.7,3.5,3.6,3.5c1.9,0,3.5-1.6,3.5-3.5V74z"/>
</g>
</svg>
