<?xml version="1.0" encoding="utf-8"?>
<!-- Generator: Adobe Illustrator 18.1.1, SVG Export Plug-In . SVG Version: 6.00 Build 0)  -->
<svg version="1.1" id="Layer_1" xmlns="http://www.w3.org/2000/svg" xmlns:xlink="http://www.w3.org/1999/xlink" x="0px" y="0px"
	 viewBox="0 0 980 289" enable-background="new 0 0 980 289" xml:space="preserve">
<path id="text-healthy_x5F_motivation" fill="#231F20" d="M156.3,20.9c0-2.9-1.6-4.3-4.3-4.3h-8.4V-0.1h19.7
	c8.8,0,12.5,3.7,12.5,12.5v48.1h70V12.3c0-8.8,3.7-12.5,12.5-12.5h19.7v16.8h-8.4c-2.7,0-4.3,1.4-4.3,4.3v116.5h-19.5V77h-70v60.4
	h-19.5V20.9z M340.8,36.5c27.7,0,42.5,20.7,42.5,46.2c0,2.5-0.6,7.8-0.6,7.8h-71.9c1.2,21,16.4,32.9,33.9,32.9
	c17,0,28.8-11.5,28.8-11.5l8.2,13.4c0,0-14.6,14.4-38,14.4c-31.2,0-52.4-22.4-52.4-51.6C291.3,56.8,312.8,36.5,340.8,36.5z
	 M363.8,76.7c-0.6-16.4-10.9-25.1-23.2-25.1c-14.4,0-26.1,8.8-29,25.1H363.8z M458.5,76.1h4.3v-1c0-17.3-6.4-23.6-21.8-23.6
	c-4.7,0-16.2,1.2-16.2,7.6v5.7h-17.7V55c0-16.2,24.6-18.5,34.1-18.5c32,0,40.5,16.8,40.5,38.6V117c0,2.9,1.6,4.3,4.3,4.3h8v16.2
	h-17.7c-8.8,0-12.3-4.3-12.3-11.3c0-3.3,0.4-5.8,0.4-5.8H464c0,0-7.8,19.5-31.4,19.5c-17,0-33.5-10.3-33.5-30
	C399.1,78,442,76.1,458.5,76.1z M436.7,124.6c16,0,26.3-16.8,26.3-31.4v-3.3h-4.9c-14.2,0-40,0.8-40,18.9
	C418.2,116.8,424.2,124.6,436.7,124.6z M514.1,20.3c0-2.9-1.6-4.3-4.3-4.3h-8V-0.1h18.7c8.8,0,12.5,3.7,12.5,12.5V117
	c0,2.9,1.6,4.3,4.3,4.3h8v16.2h-18.7c-8.8,0-12.5-3.7-12.5-12.5V20.3z M567.5,54h-12.9V38.8h13.3V11.8h18.5v27.1h23.6V54h-23.6v45.2
	c0,19.7,13.6,22.2,20.9,22.2c2.7,0,4.5-0.4,4.5-0.4v16.8c0,0-2.5,0.4-6.6,0.4c-12.5,0-37.6-3.9-37.6-36.8V54z M633.1,20.3
	c0-2.9-1.6-4.3-4.3-4.3h-8V-0.1h18.7c8.8,0,12.5,3.7,12.5,12.1v38.4c0,4.7-0.4,8.2-0.4,8.2h0.4c4.3-9.5,17-22,36.6-22
	c23.2,0,33.7,12.7,33.7,37.8V117c0,2.9,1.6,4.3,4.3,4.3h8v16.2h-18.5c-8.8,0-12.5-3.7-12.5-12.5V78.6c0-13.8-2.9-24.8-18.7-24.8
	c-15,0-27.1,10.1-31.2,24.4c-1.4,3.9-1.8,8.4-1.8,13.1v46.2h-18.9V20.3z M759.6,162c7.6,0,13.6-5.5,17.3-14.2l4.5-10.7l-33.7-78.1
	c-1.4-3.1-3.1-3.9-6.2-3.9h-2.3V38.8h11.1c8,0,10.9,2.1,14,9.9l22.4,55.5c1.9,5.1,3.5,11.9,3.5,11.9h0.4c0,0,1.4-6.8,3.3-11.9
	l20.5-55.5c2.9-7.8,6.4-9.9,14.4-9.9h11.3V55h-2.5c-3.1,0-4.9,0.8-6.2,3.9l-39,96.3c-6,15.2-17.9,23.2-31.8,23.2
	c-14.6,0-23.2-9.7-23.2-9.7l7.8-13.6C745.2,155.2,751.2,162,759.6,162z M2.6,269.7h6.6c2.7,0,4.1-1.6,4.3-4.3l9.4-116.5h20.1
	l32.4,72.9c3.3,7.4,6.8,17.3,6.8,17.3h0.4c0,0,3.5-9.9,6.8-17.3l32.4-72.9h20.1l9.4,116.5c0.2,2.7,1.6,4.3,4.3,4.3h6.4v16.8h-17.3
	c-8.8,0-11.9-3.7-12.5-12.5l-5.7-72.7c-0.6-8.2-0.4-20.3-0.4-20.3h-0.4c0,0-3.9,12.9-7.2,20.3l-27.9,60.4H74.1l-27.9-60.4
	c-3.3-7.2-7.4-20.5-7.4-20.5h-0.4c0,0,0.2,12.3-0.4,20.5L32.6,274c-0.6,8.8-3.7,12.5-12.7,12.5H2.6V269.7z M225.7,185.5
	c29.4,0,53.2,21.6,53.2,51.4c0,30-23.8,51.8-53.2,51.8c-29.4,0-53-21.8-53-51.8C172.7,207.1,196.3,185.5,225.7,185.5z M225.7,272.4
	c18.7,0,33.9-14.8,33.9-35.5c0-20.5-15.2-35.1-33.9-35.1c-18.5,0-33.7,14.6-33.7,35.1C192,257.6,207.2,272.4,225.7,272.4z
	 M303.3,203h-12.9v-15.2h13.3v-27.1h18.5v27.1h23.6V203h-23.6v45.2c0,19.7,13.6,22.2,20.9,22.2c2.7,0,4.5-0.4,4.5-0.4v16.8
	c0,0-2.5,0.4-6.6,0.4c-12.5,0-37.6-3.9-37.6-36.8V203z M372.1,208.3c0-2.9-1.6-4.3-4.3-4.3h-8v-16.2h18.5c8.8,0,12.5,3.7,12.5,12.5
	V266c0,2.9,1.6,4.3,4.3,4.3h8v16.2h-18.5c-8.8,0-12.5-3.7-12.5-12.5V208.3z M372.5,148.9h17v19.7h-17V148.9z M417.7,207.9
	c-1.2-2.9-2.9-3.9-6-3.9h-1.9v-16.2h9.7c8.8,0,12.1,2.1,15,9.9l21.2,56.7c1.9,5.5,3.5,12.9,3.5,12.9h0.4c0,0,1.6-7.4,3.5-12.9
	l21-56.7c2.9-7.8,6.4-9.9,15-9.9h9.2V204h-1.9c-3.3,0-5.3,1-6.4,3.9l-30,78.5h-21.8L417.7,207.9z M576.5,225.1h4.3v-1
	c0-17.3-6.4-23.6-21.8-23.6c-4.7,0-16.2,1.2-16.2,7.6v5.7h-17.7V204c0-16.2,24.6-18.5,34.1-18.5c32,0,40.5,16.8,40.5,38.6V266
	c0,2.9,1.6,4.3,4.3,4.3h8v16.2h-17.7c-8.8,0-12.3-4.3-12.3-11.3c0-3.3,0.4-5.8,0.4-5.8H582c0,0-7.8,19.5-31.4,19.5
	c-17,0-33.5-10.3-33.5-30C517.1,227,560,225.1,576.5,225.1z M554.7,273.6c16,0,26.3-16.8,26.3-31.4v-3.3h-4.9
	c-14.2,0-40,0.8-40,18.9C536.2,265.8,542.2,273.6,554.7,273.6z M633.2,203h-12.9v-15.2h13.3v-27.1h18.5v27.1h23.6V203h-23.6v45.2
	c0,19.7,13.6,22.2,20.9,22.2c2.7,0,4.5-0.4,4.5-0.4v16.8c0,0-2.5,0.4-6.6,0.4c-12.5,0-37.6-3.9-37.6-36.8V203z M702,208.3
	c0-2.9-1.6-4.3-4.3-4.3h-8v-16.2h18.5c8.8,0,12.5,3.7,12.5,12.5V266c0,2.9,1.6,4.3,4.3,4.3h8v16.2h-18.5c-8.8,0-12.5-3.7-12.5-12.5
	V208.3z M702.4,148.9h17v19.7h-17V148.9z M798.1,185.5c29.4,0,53.2,21.6,53.2,51.4c0,30-23.8,51.8-53.2,51.8s-53-21.8-53-51.8
	C745.1,207.1,768.7,185.5,798.1,185.5z M798.1,272.4c18.7,0,33.9-14.8,33.9-35.5c0-20.5-15.2-35.1-33.9-35.1
	c-18.5,0-33.7,14.6-33.7,35.1C764.4,257.6,779.6,272.4,798.1,272.4z M874.9,208.3c0-2.9-1.6-4.3-4.3-4.3h-8v-16.2h18.1
	c8.4,0,12.5,3.7,12.5,10.9v3.7c0,3.1-0.4,5.7-0.4,5.7h0.4c3.9-8.6,15.6-22.6,37-22.6c23.4,0,33.9,12.7,33.9,37.8V266
	c0,2.9,1.6,4.3,4.3,4.3h8v16.2h-18.7c-8.8,0-12.5-3.7-12.5-12.5v-46.4c0-13.8-2.7-24.8-18.5-24.8c-15.2,0-27.3,9.9-31.2,24.2
	c-1.4,3.9-1.8,8.4-1.8,13.3v46.2h-18.9V208.3z"/>
</svg>
