<?xml version="1.0" encoding="utf-8"?>
<!-- Generator: Adobe Illustrator 18.1.1, SVG Export Plug-In . SVG Version: 6.00 Build 0)  -->
<svg version="1.1" id="Layer_1" xmlns="http://www.w3.org/2000/svg" xmlns:xlink="http://www.w3.org/1999/xlink" x="0px" y="0px"
	 viewBox="0 0 640 148" enable-background="new 0 0 640 148" xml:space="preserve">
<circle fill="none" stroke="#FFFFFF" stroke-width="3" stroke-miterlimit="10" cx="146.9" cy="53.4" r="46.2"/>
<circle fill="#FFFFFF" cx="126.6" cy="12.5" r="4.8"/>
<circle fill="#FFFFFF" cx="208.1" cy="144" r="3"/>
<line fill="none" stroke="#FFFFFF" stroke-width="0.75" stroke-miterlimit="10" x1="171.1" y1="92.7" x2="208.1" y2="144"/>
<g>
	<path fill="#FFFFFF" d="M132.9,53.3c0.9,2.8,1.2,5.7,1.8,8.6c0.6-2.9,0.9-5.8,1.7-8.6l2.7-8.7c0.5-1.4,2-2.2,3.4-2.2
		c1.9,0,3.5,1.2,3.5,3.1c0,0.3,0,0.5-0.1,0.9l-7.1,19.7c-0.8,2.2-1.9,3.2-4.1,3.2c-2.3,0-3.4-0.9-4.2-3.1l-7.2-19.9
		c-0.1-0.4-0.1-0.6-0.1-0.9c0-1.9,1.7-3.1,3.5-3.1c1.4,0,2.9,0.9,3.3,2.2L132.9,53.3z"/>
	<path fill="#FFFFFF" d="M152.5,66c0,1.8-1,3.2-3.1,3.2c-2.1,0-3.1-1.4-3.1-3.2V50.3c0-1.7,1.3-5,3.7-6.5c2-1.6,4.7-1.4,6.5-1.4
		c5.6,0,8.4,4.1,8.4,10.1V66c0,1.8-1.1,3.2-3.1,3.2c-2,0-3.1-1.4-3.1-3.2V52.4c0-2.6-1.1-4.2-2.9-4.2c-3-0.1-3.3,1.8-3.3,2.1V66z"/>
</g>
</svg>
