<?xml version="1.0" encoding="utf-8"?>
<!-- Generator: Adobe Illustrator 18.1.1, SVG Export Plug-In . SVG Version: 6.00 Build 0)  -->
<svg version="1.1" id="vn-g" xmlns="http://www.w3.org/2000/svg" xmlns:xlink="http://www.w3.org/1999/xlink" x="0px" y="0px"
	 viewBox="0 0 1200 1200" enable-background="new 0 0 1200 1200" xml:space="preserve">
<circle fill="none" stroke="#FFFFFF" stroke-width="3" stroke-miterlimit="10" cx="249.9" cy="264" r="46.2"/>
<circle fill="#FFFFFF" cx="229.5" cy="223.2" r="4.8"/>
<circle fill="#FFFFFF" cx="311" cy="354.7" r="3"/>
<line fill="none" stroke="#FFFFFF" stroke-width="0.75" stroke-miterlimit="10" x1="274.1" y1="303.3" x2="311" y2="354.7"/>
<g>
	<path fill="#FFFFFF" d="M235.9,263.9c0.9,2.8,1.2,5.7,1.8,8.6c0.6-2.9,0.9-5.8,1.7-8.6l2.7-8.7c0.5-1.4,2-2.2,3.4-2.2
		c1.9,0,3.5,1.2,3.5,3.1c0,0.3,0,0.5-0.1,0.9l-7.1,19.7c-0.8,2.2-1.9,3.2-4.1,3.2c-2.3,0-3.4-0.9-4.2-3.1l-7.2-19.9
		c-0.1-0.4-0.1-0.6-0.1-0.9c0-1.9,1.7-3.1,3.5-3.1c1.4,0,2.9,0.9,3.3,2.2L235.9,263.9z"/>
	<path fill="#FFFFFF" d="M255.5,276.7c0,1.8-1,3.2-3.1,3.2c-2.1,0-3.1-1.4-3.1-3.2v-15.8c0-1.7,1.3-5,3.7-6.5c2-1.6,4.7-1.4,6.5-1.4
		c5.6,0,8.4,4.1,8.4,10.1v13.6c0,1.8-1.1,3.2-3.1,3.2s-3.1-1.4-3.1-3.2v-13.6c0-2.6-1.1-4.2-2.9-4.2c-3-0.1-3.3,1.8-3.3,2.1V276.7z"
		/>
</g>
</svg>
