<?xml version="1.0" encoding="utf-8"?>
<!-- Generator: Adobe Illustrator 18.1.1, SVG Export Plug-In . SVG Version: 6.00 Build 0)  -->
<svg version="1.1" id="Layer_1" xmlns="http://www.w3.org/2000/svg" xmlns:xlink="http://www.w3.org/1999/xlink" x="0px" y="0px"
	 viewBox="0 0 1062 1040.9" enable-background="new 0 0 1062 1040.9" xml:space="preserve">
<circle fill="none" stroke="#FFFFFF" stroke-width="3" stroke-miterlimit="10" cx="237.8" cy="232" r="46.2"/>
<circle fill="#FFFFFF" cx="217.5" cy="191.2" r="4.8"/>
<circle fill="#FFFFFF" cx="299" cy="322.7" r="3"/>
<line fill="none" stroke="#FFFFFF" stroke-width="0.75" stroke-miterlimit="10" x1="262" y1="271.4" x2="299" y2="322.7"/>
<circle fill="none" stroke="#FFFFFF" stroke-width="3" stroke-miterlimit="10" cx="711.5" cy="233.5" r="46.2"/>
<circle fill="#FFFFFF" cx="749.8" cy="258.3" r="4.8"/>
<circle fill="#FFFFFF" cx="655.3" cy="330" r="3"/>
<line fill="none" stroke="#FFFFFF" stroke-width="0.75" stroke-miterlimit="10" x1="690.6" y1="274.7" x2="655.3" y2="330"/>
<circle fill="#FFFFFF" cx="668" cy="783.5" r="7.5"/>
<circle fill="#FFFFFF" cx="542.8" cy="650.8" r="6.2"/>
<path fill="none" d="M589.6,826.1c3.2,0,6,2.1,6.9,5c12.9-1.6,25.3-5.8,36.6-12.5c45-26.6,59.9-84.9,33.3-129.9
	c-17-28.7-48.3-46.5-81.7-46.5c-16.9,0-33.6,4.6-48.2,13.2c-21.8,12.9-37.3,33.5-43.5,58s-2.6,50,10.3,71.8
	c16.6,28,46.8,45.7,79.3,46.5C583.2,828.5,586.1,826.1,589.6,826.1z"/>
<path fill="#FFFFFF" d="M669,687.2c-17.5-29.6-49.8-48-84.2-48c-17.4,0-34.6,4.7-49.7,13.7c-22.5,13.3-38.4,34.6-44.9,59.9
	c-6.5,25.3-2.7,51.6,10.6,74.1c17.1,28.9,48.3,47.1,81.8,48c0.7,3.3,3.6,5.8,7.1,5.8c3.7,0,6.8-2.9,7.2-6.5
	c13.3-1.6,26.2-6,37.8-12.9C681.1,793.7,696.5,733.6,669,687.2z M593.7,834.4c-0.5,1.8-2.1,3.2-4.1,3.2c-1.8,0-3.4-1.2-4-2.8
	c-0.2-0.5-0.3-1-0.3-1.5c0-0.5,0.1-1,0.3-1.5c0.6-1.6,2.1-2.7,4-2.7c1.7,0,3.1,1,3.8,2.4c0.3,0.6,0.5,1.2,0.5,1.9
	C593.9,833.7,593.8,834.1,593.7,834.4z M633.1,818.6c-11.3,6.7-23.7,10.9-36.6,12.5c-0.9-2.9-3.7-5-6.9-5c-3.5,0-6.4,2.5-7.1,5.7
	c-32.5-0.8-62.7-18.5-79.3-46.5c-12.9-21.8-16.5-47.3-10.3-71.8s21.8-45.1,43.5-58c14.6-8.7,31.3-13.2,48.2-13.2
	c33.4,0,64.7,17.8,81.7,46.5C693,733.7,678.1,792,633.1,818.6z"/>
<path fill="none" stroke="#FFFFFF" stroke-miterlimit="10" d="M723.1,278.2C812.7,356,838.7,644.5,668,783.5"/>
<path fill="none" stroke="#FFFFFF" stroke-miterlimit="10" d="M225.8,276.6C212.7,426,242.2,650.8,542.8,650.8"/>
<g>
	<path fill="#FFFFFF" d="M223.9,231.9c0.9,2.8,1.2,5.7,1.8,8.6c0.6-2.9,0.9-5.8,1.7-8.6l2.7-8.7c0.5-1.4,2-2.2,3.4-2.2
		c1.9,0,3.5,1.2,3.5,3.1c0,0.3,0,0.5-0.1,0.9l-7.1,19.7c-0.8,2.2-1.9,3.2-4.1,3.2c-2.3,0-3.4-0.9-4.2-3.1l-7.2-19.9
		c-0.1-0.4-0.1-0.6-0.1-0.9c0-1.9,1.7-3.1,3.5-3.1c1.4,0,2.9,0.9,3.3,2.2L223.9,231.9z"/>
	<path fill="#FFFFFF" d="M243.4,244.7c0,1.8-1,3.2-3.1,3.2c-2.1,0-3.1-1.4-3.1-3.2v-15.8c0-1.7,1.3-5,3.7-6.5c2-1.6,4.7-1.4,6.5-1.4
		c5.6,0,8.4,4.1,8.4,10.1v13.6c0,1.8-1.1,3.2-3.1,3.2c-2,0-3.1-1.4-3.1-3.2v-13.6c0-2.6-1.1-4.2-2.9-4.2c-3-0.1-3.3,1.8-3.3,2.1
		V244.7z"/>
</g>
<g>
	<path fill="#FFFFFF" d="M689.3,216.2c0-1.7,1.3-3.2,3.6-3.2s3.6,1.5,3.6,3.2v9.2c1.7-0.9,3.2-1.5,5.7-1.5c6.6,0,9.3,3.7,9.3,8.6
		v8.7c0,5.5-3.7,9.7-11.1,9.7c-7,0-11.1-3.8-11.1-8.7V216.2z M696.5,242.2c0,1.9,1.5,3.1,4,3.1c2.6,0,3.8-1.4,3.8-3.5v-9.5
		c0-1.9-1-3-3.6-3c-1.7,0-3.1,0.5-4.2,1.5V242.2z"/>
	<path fill="#FFFFFF" d="M714.1,216.2c0-1.7,1.3-3.2,3.6-3.2s3.6,1.5,3.6,3.2v9.2c1.7-0.9,3.2-1.5,5.7-1.5c6.6,0,9.3,3.7,9.3,8.6
		v8.7c0,5.5-3.7,9.7-11.1,9.7c-7,0-11.1-3.8-11.1-8.7V216.2z M721.3,242.2c0,1.9,1.5,3.1,4,3.1c2.6,0,3.8-1.4,3.8-3.5v-9.5
		c0-1.9-1-3-3.6-3c-1.7,0-3.1,0.5-4.2,1.5V242.2z"/>
</g>
<g>
	<path fill="#FFFFFF" d="M563.2,772.4c-3.5,0-6.7-2.9-6.7-6.2v-22.1h-20.2v22.1c0,3.3-3,6.2-6.7,6.2c-3.7,0-6.6-2.9-6.6-6.2v-56.4
		c0-3.2,2.9-6.1,6.6-6.1c3.6,0,6.7,2.8,6.7,6.1V732h20.2v-22.1c0-3.2,3.1-6.1,6.7-6.1c3.5,0,6.6,2.8,6.6,6.1v56.4
		C569.8,769.6,566.8,772.4,563.2,772.4z"/>
	<path fill="#FFFFFF" d="M642.2,766.5c0,3.2-3,6-6.6,6c-3.6,0-6.7-2.8-6.7-6v-32.7l-10.8,21.3c-1.2,2.5-3.6,3.6-6.3,3.6
		c-2.6,0-4.9-1.1-6.2-3.6l-10.8-21.3v32.7c0,3.2-3.1,6-6.8,6c-3.6,0-6.5-2.8-6.5-6V710c0-3.6,2.9-6.3,6.8-6.3c3,0,5.4,1.2,6.7,3.7
		l16.9,33.5l16.9-33.6c1.3-2.8,3.9-3.6,6.6-3.6c3.9,0,6.8,2.8,6.8,6.3V766.5z"/>
</g>
</svg>
